<svg version="1.1" xmlns="http://www.w3.org/2000/svg" width="1024" height="1024" viewBox="0 0 1024 1024">
<title></title>
<g id="icomoon-ignore">
</g>
<path fill="#665cac" d="M486.315 0.085c-82.133 1.109-258.859 14.592-357.717 105.173-73.387 72.96-99.029 180.523-102.016 313.728-2.56 132.693-5.547 381.867 234.667 449.749v103.253c0 0-1.621 41.387 25.685 49.92 33.707 10.667 52.907-21.291 84.907-55.424l59.733-67.413c164.267 13.653 290.133-17.877 304.64-22.571 33.28-10.667 221.056-34.603 251.776-283.819 31.573-257.323-15.36-419.456-99.84-492.843l-0.427-0.085c-25.6-23.467-128-98.133-357.12-98.987 0 0-16.896-1.067-44.288-0.683zM489.173 72.491c23.253-0.128 37.547 0.853 37.547 0.853 193.707 0.427 286.336 58.88 308.096 78.507 71.253 60.971 107.861 207.189 81.067 422.059-25.6 208.213-177.92 221.44-206.080 230.4-11.947 3.84-122.88 31.147-262.485 22.187 0 0-104.064 125.483-136.491 157.909-5.12 5.547-11.093 7.253-14.933 6.4-5.547-1.28-7.253-8.107-6.827-17.493l0.853-171.477c-203.563-56.32-191.616-268.885-189.483-379.819 2.56-110.933 23.467-201.899 85.333-263.339 83.499-75.52 233.6-85.76 303.403-86.187zM504.533 183.424c-0.013 0-0.028 0-0.043 0-7.046 0-12.757 5.712-12.757 12.757 0 0 0 0 0 0v0c0 7.069 5.731 12.8 12.8 12.8v0c1.364-0.028 2.971-0.044 4.583-0.044 65.1 0 124.152 25.892 167.421 67.939l-0.057-0.055c46.507 45.227 69.163 105.813 70.016 185.173 0 7.069 5.731 12.8 12.8 12.8v0-0.384c7.069 0 12.8-5.731 12.8-12.8v0c0.157-3.48 0.247-7.56 0.247-11.662 0-74.43-29.543-141.961-77.544-191.504l0.070 0.072c-50.773-49.493-114.859-75.093-190.336-75.093zM335.829 212.864c-1.727-0.259-3.721-0.408-5.748-0.408-7.549 0-14.619 2.053-20.681 5.631l0.19-0.104h-0.512c-17.493 10.24-33.621 23.040-48.981 40.107-11.52 13.653-17.963 27.264-19.669 40.491-0.279 2.039-0.438 4.396-0.438 6.791 0 5.823 0.941 11.426 2.678 16.666l-0.107-0.374 0.853 0.427c14.645 42.578 31.945 79.22 52.671 113.56l-1.471-2.627c28.652 51.472 61.491 95.882 99.246 135.571l-0.26-0.275 1.28 1.707 1.707 1.28 2.56 2.56c39.559 37.583 84.086 70.554 132.337 97.686l3.343 1.728c56.32 30.72 90.539 45.227 111.019 51.2v0.427c5.973 1.707 11.435 2.56 16.981 2.56 18.235-1.369 34.519-8.773 47.083-20.196l-0.064 0.057c16.64-14.933 29.867-31.488 39.68-48.981v-0.427c9.813-18.347 6.4-35.883-7.68-47.829-27.026-23.744-57.036-45.466-88.997-64.222l-2.736-1.484c-21.76-11.947-43.947-4.693-52.907 7.253l-19.2 24.277c-9.813 11.947-27.733 10.24-27.733 10.24l-0.512 0.427c-133.12-34.133-168.533-168.917-168.533-168.917s-1.707-18.347 10.667-27.733l23.893-19.2c11.52-9.387 19.627-31.573 7.253-53.333-20.207-34.7-41.93-64.712-66.261-92.376l0.555 0.643c-5.305-6.541-12.762-11.155-21.28-12.765l-0.224-0.035zM526.677 250.837c-7.051 0.024-12.757 5.746-12.757 12.8 0 7.069 5.731 12.8 12.8 12.8 0.015 0 0.030 0 0.045 0h-0.002c44.424 0.795 84.345 19.431 113.026 49.025l0.041 0.042c23.999 26.399 38.693 61.631 38.693 100.296 0 3.292-0.107 6.56-0.316 9.799l0.023-0.441c0.024 7.051 5.746 12.757 12.8 12.757 0 0 0 0 0 0v0l0.427 0.512c0 0 0 0 0 0 7.069 0 12.8-5.731 12.8-12.8 0-0.015 0-0.030 0-0.045v0.002c1.28-50.773-14.507-93.44-45.653-127.573s-74.667-53.333-130.133-57.173c-0.268-0.020-0.581-0.031-0.896-0.031s-0.628 0.011-0.937 0.034l0.041-0.002zM547.584 319.915c-0.114-0.004-0.249-0.006-0.384-0.006-7.202 0-13.040 5.838-13.040 13.040 0 7.067 5.621 12.821 12.637 13.034h0.020c42.24 2.133 62.72 23.467 65.28 67.413 0.237 6.883 5.874 12.373 12.793 12.373 0.002 0 0.005 0 0.007 0h0.426c6.896-0.221 12.402-5.864 12.402-12.794 0-0.302-0.010-0.602-0.031-0.9l0.002 0.040c-2.987-57.173-34.133-89.216-89.6-92.203-0.076-0.002-0.166-0.003-0.256-0.003s-0.18 0.001-0.269 0.003h0.013z"></path>
</svg>
